<mxfile host="app.diagrams.net" modified="2024-07-06T01:52:25.068Z" agent="Mozilla/5.0 (Windows NT 10.0; Win64; x64) AppleWebKit/537.36 (KHTML, like Gecko) Chrome/128.0.0.0 Safari/537.36" etag="6A9Nqu5LctfsFKSpHhF3" version="24.6.4" type="github">
  <diagram name="페이지-1" id="PjEZvH0chDCrzeqFpigF">
    <mxGraphModel dx="1434" dy="780" grid="0" gridSize="10" guides="1" tooltips="1" connect="1" arrows="1" fold="1" page="1" pageScale="1" pageWidth="827" pageHeight="1169" background="#FFFFFF" math="0" shadow="0">
      <root>
        <mxCell id="0" />
        <mxCell id="1" parent="0" />
        <mxCell id="i8ZUq237PijFcAwi31fq-1" value="User_info" style="swimlane;fontStyle=0;childLayout=stackLayout;horizontal=1;startSize=30;horizontalStack=0;resizeParent=1;resizeParentMax=0;resizeLast=0;collapsible=1;marginBottom=0;whiteSpace=wrap;html=1;" vertex="1" parent="1">
          <mxGeometry x="327" y="45" width="172" height="360" as="geometry" />
        </mxCell>
        <mxCell id="i8ZUq237PijFcAwi31fq-2" value="uid :&amp;nbsp;&lt;span style=&quot;color: rgb(68, 68, 68); font-family: sans-serif; font-size: 13.12px; background-color: rgb(255, 255, 255);&quot;&gt;int&lt;/span&gt;" style="text;strokeColor=none;fillColor=none;align=left;verticalAlign=middle;spacingLeft=4;spacingRight=4;overflow=hidden;points=[[0,0.5],[1,0.5]];portConstraint=eastwest;rotatable=0;whiteSpace=wrap;html=1;" vertex="1" parent="i8ZUq237PijFcAwi31fq-1">
          <mxGeometry y="30" width="172" height="30" as="geometry" />
        </mxCell>
        <mxCell id="i8ZUq237PijFcAwi31fq-3" value="user_id : var(30)" style="text;strokeColor=none;fillColor=none;align=left;verticalAlign=middle;spacingLeft=4;spacingRight=4;overflow=hidden;points=[[0,0.5],[1,0.5]];portConstraint=eastwest;rotatable=0;whiteSpace=wrap;html=1;" vertex="1" parent="i8ZUq237PijFcAwi31fq-1">
          <mxGeometry y="60" width="172" height="30" as="geometry" />
        </mxCell>
        <mxCell id="i8ZUq237PijFcAwi31fq-4" value="user_pw : var(30)" style="text;strokeColor=none;fillColor=none;align=left;verticalAlign=middle;spacingLeft=4;spacingRight=4;overflow=hidden;points=[[0,0.5],[1,0.5]];portConstraint=eastwest;rotatable=0;whiteSpace=wrap;html=1;" vertex="1" parent="i8ZUq237PijFcAwi31fq-1">
          <mxGeometry y="90" width="172" height="30" as="geometry" />
        </mxCell>
        <mxCell id="i8ZUq237PijFcAwi31fq-9" value="user_name : var(30)" style="text;strokeColor=none;fillColor=none;align=left;verticalAlign=middle;spacingLeft=4;spacingRight=4;overflow=hidden;points=[[0,0.5],[1,0.5]];portConstraint=eastwest;rotatable=0;whiteSpace=wrap;html=1;" vertex="1" parent="i8ZUq237PijFcAwi31fq-1">
          <mxGeometry y="120" width="172" height="30" as="geometry" />
        </mxCell>
        <mxCell id="i8ZUq237PijFcAwi31fq-11" value="user_num : var(12)" style="text;strokeColor=none;fillColor=none;align=left;verticalAlign=middle;spacingLeft=4;spacingRight=4;overflow=hidden;points=[[0,0.5],[1,0.5]];portConstraint=eastwest;rotatable=0;whiteSpace=wrap;html=1;" vertex="1" parent="i8ZUq237PijFcAwi31fq-1">
          <mxGeometry y="150" width="172" height="30" as="geometry" />
        </mxCell>
        <mxCell id="i8ZUq237PijFcAwi31fq-12" value="user_date : date" style="text;strokeColor=none;fillColor=none;align=left;verticalAlign=middle;spacingLeft=4;spacingRight=4;overflow=hidden;points=[[0,0.5],[1,0.5]];portConstraint=eastwest;rotatable=0;whiteSpace=wrap;html=1;" vertex="1" parent="i8ZUq237PijFcAwi31fq-1">
          <mxGeometry y="180" width="172" height="30" as="geometry" />
        </mxCell>
        <mxCell id="i8ZUq237PijFcAwi31fq-10" value="user_nickname : var(30)" style="text;strokeColor=none;fillColor=none;align=left;verticalAlign=middle;spacingLeft=4;spacingRight=4;overflow=hidden;points=[[0,0.5],[1,0.5]];portConstraint=eastwest;rotatable=0;whiteSpace=wrap;html=1;" vertex="1" parent="i8ZUq237PijFcAwi31fq-1">
          <mxGeometry y="210" width="172" height="30" as="geometry" />
        </mxCell>
        <mxCell id="i8ZUq237PijFcAwi31fq-7" value="user_join : datetime" style="text;strokeColor=none;fillColor=none;align=left;verticalAlign=middle;spacingLeft=4;spacingRight=4;overflow=hidden;points=[[0,0.5],[1,0.5]];portConstraint=eastwest;rotatable=0;whiteSpace=wrap;html=1;" vertex="1" parent="i8ZUq237PijFcAwi31fq-1">
          <mxGeometry y="240" width="172" height="30" as="geometry" />
        </mxCell>
        <mxCell id="i8ZUq237PijFcAwi31fq-8" value="user_mail : var(50)" style="text;strokeColor=none;fillColor=none;align=left;verticalAlign=middle;spacingLeft=4;spacingRight=4;overflow=hidden;points=[[0,0.5],[1,0.5]];portConstraint=eastwest;rotatable=0;whiteSpace=wrap;html=1;" vertex="1" parent="i8ZUq237PijFcAwi31fq-1">
          <mxGeometry y="270" width="172" height="30" as="geometry" />
        </mxCell>
        <mxCell id="i8ZUq237PijFcAwi31fq-13" value="school_num : int" style="text;strokeColor=none;fillColor=none;align=left;verticalAlign=middle;spacingLeft=4;spacingRight=4;overflow=hidden;points=[[0,0.5],[1,0.5]];portConstraint=eastwest;rotatable=0;whiteSpace=wrap;html=1;" vertex="1" parent="i8ZUq237PijFcAwi31fq-1">
          <mxGeometry y="300" width="172" height="30" as="geometry" />
        </mxCell>
        <mxCell id="i8ZUq237PijFcAwi31fq-15" value="class_num : int" style="text;strokeColor=none;fillColor=none;align=left;verticalAlign=middle;spacingLeft=4;spacingRight=4;overflow=hidden;points=[[0,0.5],[1,0.5]];portConstraint=eastwest;rotatable=0;whiteSpace=wrap;html=1;" vertex="1" parent="i8ZUq237PijFcAwi31fq-1">
          <mxGeometry y="330" width="172" height="30" as="geometry" />
        </mxCell>
        <mxCell id="i8ZUq237PijFcAwi31fq-16" value="Student_info" style="swimlane;fontStyle=0;childLayout=stackLayout;horizontal=1;startSize=30;horizontalStack=0;resizeParent=1;resizeParentMax=0;resizeLast=0;collapsible=1;marginBottom=0;whiteSpace=wrap;html=1;" vertex="1" parent="1">
          <mxGeometry x="672" y="15" width="140" height="210" as="geometry" />
        </mxCell>
        <mxCell id="i8ZUq237PijFcAwi31fq-17" value="student_id : var(15)" style="text;strokeColor=none;fillColor=none;align=left;verticalAlign=middle;spacingLeft=4;spacingRight=4;overflow=hidden;points=[[0,0.5],[1,0.5]];portConstraint=eastwest;rotatable=0;whiteSpace=wrap;html=1;" vertex="1" parent="i8ZUq237PijFcAwi31fq-16">
          <mxGeometry y="30" width="140" height="30" as="geometry" />
        </mxCell>
        <mxCell id="i8ZUq237PijFcAwi31fq-20" value="student_name : var(30)" style="text;strokeColor=none;fillColor=none;align=left;verticalAlign=middle;spacingLeft=4;spacingRight=4;overflow=hidden;points=[[0,0.5],[1,0.5]];portConstraint=eastwest;rotatable=0;whiteSpace=wrap;html=1;" vertex="1" parent="i8ZUq237PijFcAwi31fq-16">
          <mxGeometry y="60" width="140" height="30" as="geometry" />
        </mxCell>
        <mxCell id="i8ZUq237PijFcAwi31fq-22" value="student_age&amp;nbsp;: var(5)" style="text;strokeColor=none;fillColor=none;align=left;verticalAlign=middle;spacingLeft=4;spacingRight=4;overflow=hidden;points=[[0,0.5],[1,0.5]];portConstraint=eastwest;rotatable=0;whiteSpace=wrap;html=1;" vertex="1" parent="i8ZUq237PijFcAwi31fq-16">
          <mxGeometry y="90" width="140" height="30" as="geometry" />
        </mxCell>
        <mxCell id="i8ZUq237PijFcAwi31fq-21" value="student_num&amp;nbsp;: var(12)" style="text;strokeColor=none;fillColor=none;align=left;verticalAlign=middle;spacingLeft=4;spacingRight=4;overflow=hidden;points=[[0,0.5],[1,0.5]];portConstraint=eastwest;rotatable=0;whiteSpace=wrap;html=1;" vertex="1" parent="i8ZUq237PijFcAwi31fq-16">
          <mxGeometry y="120" width="140" height="30" as="geometry" />
        </mxCell>
        <mxCell id="i8ZUq237PijFcAwi31fq-18" value="school_num : int" style="text;strokeColor=none;fillColor=none;align=left;verticalAlign=middle;spacingLeft=4;spacingRight=4;overflow=hidden;points=[[0,0.5],[1,0.5]];portConstraint=eastwest;rotatable=0;whiteSpace=wrap;html=1;" vertex="1" parent="i8ZUq237PijFcAwi31fq-16">
          <mxGeometry y="150" width="140" height="30" as="geometry" />
        </mxCell>
        <mxCell id="i8ZUq237PijFcAwi31fq-19" value="class_num : int" style="text;strokeColor=none;fillColor=none;align=left;verticalAlign=middle;spacingLeft=4;spacingRight=4;overflow=hidden;points=[[0,0.5],[1,0.5]];portConstraint=eastwest;rotatable=0;whiteSpace=wrap;html=1;" vertex="1" parent="i8ZUq237PijFcAwi31fq-16">
          <mxGeometry y="180" width="140" height="30" as="geometry" />
        </mxCell>
        <mxCell id="i8ZUq237PijFcAwi31fq-23" value="" style="edgeStyle=orthogonalEdgeStyle;rounded=0;orthogonalLoop=1;jettySize=auto;html=1;startArrow=classicThin;startFill=1;endArrow=classicThin;endFill=1;" edge="1" parent="1" source="i8ZUq237PijFcAwi31fq-24" target="i8ZUq237PijFcAwi31fq-21">
          <mxGeometry relative="1" as="geometry" />
        </mxCell>
        <mxCell id="i8ZUq237PijFcAwi31fq-26" value="" style="edgeStyle=orthogonalEdgeStyle;rounded=0;orthogonalLoop=1;jettySize=auto;html=1;startArrow=classicThin;startFill=1;endArrow=classicThin;endFill=1;" edge="1" parent="1" source="i8ZUq237PijFcAwi31fq-4" target="i8ZUq237PijFcAwi31fq-24">
          <mxGeometry relative="1" as="geometry">
            <mxPoint x="499" y="150" as="sourcePoint" />
            <mxPoint x="650" y="229" as="targetPoint" />
          </mxGeometry>
        </mxCell>
        <mxCell id="i8ZUq237PijFcAwi31fq-24" value="교사 학생관리" style="text;html=1;align=center;verticalAlign=middle;resizable=0;points=[];autosize=1;strokeColor=none;fillColor=none;" vertex="1" parent="1">
          <mxGeometry x="539" y="137" width="93" height="26" as="geometry" />
        </mxCell>
        <mxCell id="i8ZUq237PijFcAwi31fq-32" value="" style="edgeStyle=orthogonalEdgeStyle;rounded=0;orthogonalLoop=1;jettySize=auto;html=1;" edge="1" parent="1" source="i8ZUq237PijFcAwi31fq-28" target="i8ZUq237PijFcAwi31fq-15">
          <mxGeometry relative="1" as="geometry" />
        </mxCell>
        <mxCell id="i8ZUq237PijFcAwi31fq-28" value="로그인 및 회원가입" style="rounded=1;whiteSpace=wrap;html=1;" vertex="1" parent="1">
          <mxGeometry x="131" y="360" width="120" height="60" as="geometry" />
        </mxCell>
      </root>
    </mxGraphModel>
  </diagram>
</mxfile>
